<svg width="26" height="21" viewBox="0 0 26 21" fill="none" xmlns="http://www.w3.org/2000/svg">
<path d="M4.69771 2.22934C4.24272 1.86099 3.5821 1.94634 3.22336 2.41352C2.86461 2.88069 2.94774 3.559 3.40273 3.92735L21.3023 18.7706C21.7573 19.139 22.4179 19.0536 22.7766 18.5865C23.1354 18.1193 23.0522 17.441 22.5973 17.0726L21.9948 16.3712C23.7273 14.5474 24.8998 12.5035 25.4904 11.0525C25.6348 10.6976 25.6348 10.3023 25.4904 9.94747C24.8385 8.34379 23.4692 6.0079 21.4217 4.05834C19.3655 2.0908 16.5349 0.437714 13 0.437714C10.0163 0.437714 7.53134 1.61913 5.59325 3.1689L4.69771 2.22934ZM8.76069 5.71592C9.8763 4.66926 11.3681 4.03139 13 4.03139C16.4781 4.03139 19.2999 6.92878 19.2999 10.5C19.2999 11.6185 19.0243 12.6697 18.5386 13.5861L16.8499 12.2294C17.0774 11.6994 17.1999 11.1154 17.1999 10.5C17.1999 8.11919 15.3187 6.18759 13 6.18759C12.8775 6.18759 12.755 6.19208 12.6325 6.20556C12.8644 6.62332 13 7.10847 13 7.62506C13 8.08325 12.895 8.51449 12.7112 8.89632L8.76069 5.71592ZM18.5211 19.1023L15.3187 16.5149C14.6012 16.8069 13.8181 16.9686 13 16.9686C9.52193 16.9686 6.7001 14.0712 6.7001 10.5C6.7001 10.19 6.72198 9.88907 6.76135 9.59259L2.6358 6.25497C1.63832 7.58912 0.925203 8.91878 0.509585 9.94747C0.365213 10.3023 0.365213 10.6976 0.509585 11.0525C1.16145 12.6562 2.5308 14.9921 4.57826 16.9416C6.63448 18.9092 9.46505 20.5623 13 20.5623C15.0912 20.5623 16.933 19.9828 18.5211 19.1023Z" fill="#A9B5E3" fill-opacity="0.44"/>
</svg>
