<svg width="25" height="20" viewBox="0 0 25 20" fill="none" xmlns="http://www.w3.org/2000/svg">
<path d="M12.4978 0C8.99119 0 6.18327 1.64286 4.13918 3.59821C2.10811 5.53571 0.749718 7.85714 0.107413 9.45089C-0.0358042 9.80357 -0.0358042 10.1964 0.107413 10.5491C0.749718 12.1429 2.10811 14.4643 4.13918 16.4018C6.18327 18.3571 8.99119 20 12.4978 20C16.0045 20 18.8124 18.3571 20.8565 16.4018C22.8876 14.4598 24.2459 12.1429 24.8926 10.5491C25.0358 10.1964 25.0358 9.80357 24.8926 9.45089C24.2459 7.85714 22.8876 5.53571 20.8565 3.59821C18.8124 1.64286 16.0045 0 12.4978 0ZM18.7473 10C18.7473 13.5491 15.9481 16.4286 12.4978 16.4286C9.04761 16.4286 6.24837 13.5491 6.24837 10C6.24837 6.45089 9.04761 3.57143 12.4978 3.57143C15.9481 3.57143 18.7473 6.45089 18.7473 10ZM12.4978 7.14286C12.4978 8.71875 11.2523 10 9.72029 10C9.2212 10 8.7525 9.86607 8.34888 9.625C8.34021 9.75 8.33152 9.87054 8.33152 10C8.33152 12.3661 10.1977 14.2857 12.4978 14.2857C14.798 14.2857 16.6641 12.3661 16.6641 10C16.6641 7.63393 14.798 5.71429 12.4978 5.71429C12.3763 5.71429 12.2548 5.71875 12.1333 5.73214C12.3633 6.14732 12.4978 6.62946 12.4978 7.14286Z" fill="#A9B5E3" fill-opacity="0.44"/>
</svg>
