<svg width="25" height="23" viewBox="0 0 25 23" fill='white' xmlns="http://www.w3.org/2000/svg">
<g id="person_24px">
<path id="icon/social/person_24px" fill-rule="evenodd" clip-rule="evenodd" d="M12.4999 3.83343C10.1979 3.83343 8.33328 5.54884 8.33328 7.66676C8.33328 9.78468 10.1979 11.5001 12.4999 11.5001C14.802 11.5001 16.6666 9.78468 16.6666 7.66676C16.6666 5.54884 14.802 3.83343 12.4999 3.83343ZM14.5832 7.66686C14.5832 6.6127 13.6457 5.7502 12.4998 5.7502C11.354 5.7502 10.4165 6.6127 10.4165 7.66686C10.4165 8.72103 11.354 9.58353 12.4998 9.58353C13.6457 9.58353 14.5832 8.72103 14.5832 7.66686ZM18.7498 17.2501C18.5415 16.5697 15.3123 15.3334 12.4998 15.3334C9.69775 15.3334 6.48942 16.5601 6.24984 17.2501H18.7498ZM4.16663 17.2501C4.16663 14.7009 9.71871 13.4167 12.5 13.4167C15.2812 13.4167 20.8333 14.7009 20.8333 17.2501V19.1667H4.16663V17.2501Z" fill="#A9B5E3" fill-opacity="0.44"/>
</g>
</svg>
